# xmcd CD database file
#
# Track frame offsets:
#	150
#	11529
#	22121
#	35060
#	45390
#	59404
#	68444
#	77891
#	88319
#	99040
#
# Disc length: 1610 seconds
#
# Revision: 0
# Processed by: cddbd v1.5.2PL0 Copyright (c) Steve Scherf et al.
# Submitted via: CDex 1.70beta2
#
DISCID=7606480a
DTITLE=Willing, Foy, and Riders of the Purple Sage - USA - Cool Cool Waters
DYEAR=1900
DGENRE=Country
TTITLE0=Cool Cool Water
TTITLE1=Soft Winds
TTITLE2=Red River Valley
TTITLE3=Hang your Head in Shame
TTITLE4=Dreamy Black Hills
TTITLE5=My Heart is Blind
TTITLE6=Beautiful Moon over Texas
TTITLE7=Have I Told you lately that I Love You
TTITLE8=The Wanderer
TTITLE9=San Angelo
EXTD=
EXTT0=
EXTT1=
EXTT2=
EXTT3=
EXTT4=
EXTT5=
EXTT6=
EXTT7=
EXTT8=
EXTT9=
PLAYORDER=
